<?xml version="1.0" encoding="utf-8"?>
<!-- Generator: Adobe Illustrator 25.2.0, SVG Export Plug-In . SVG Version: 6.00 Build 0)  -->
<svg version="1.1" id="Layer_1" xmlns="http://www.w3.org/2000/svg" xmlns:xlink="http://www.w3.org/1999/xlink" x="0px" y="0px"
	 viewBox="0 0 512 512" style="enable-background:new 0 0 512 512;" xml:space="preserve">
<style type="text/css">
	.st0{fill:#1D1D1B;}
	.st1{fill:#FAF9F5;}
</style>
<g>
	<g>
		<path class="st1" d="M491.43,190.76L491.43,190.76c-44.49-44.74-120.87-13.23-120.87,49.87v171.41L491.43,290.5
			C518.86,262.91,518.86,218.35,491.43,190.76L491.43,190.76c-44.49-44.74-120.87-13.23-120.87,49.87v171.41L491.43,290.5
			C518.86,262.91,518.86,218.35,491.43,190.76z"/>
		<path class="st1" d="M218.95,259.76c-41.87,41.87-41.87,109.75,0,151.61c41.87,41.87,109.75,41.87,151.61,0L218.95,259.76z"/>
	</g>
	<g>
		<path class="st1" d="M20.57,321.24L20.57,321.24c44.49,44.74,120.87,13.23,120.87-49.87V99.96L20.57,221.5
			C-6.86,249.09-6.86,293.65,20.57,321.24L20.57,321.24c44.49,44.74,120.87,13.23,120.87-49.87V99.96L20.57,221.5
			C-6.86,249.09-6.86,293.65,20.57,321.24z"/>
		<path class="st1" d="M293.05,100.62c-41.87-41.87-109.75-41.87-151.61,0l151.61,151.61C334.92,210.37,334.92,142.49,293.05,100.62
			z"/>
	</g>
</g>
</svg>
